<mxfile host="65bd71144e">
    <diagram id="RGS7ISsODvOlBHxMXfm4" name="Purpose of DB">
        <mxGraphModel dx="1140" dy="800" grid="1" gridSize="10" guides="1" tooltips="1" connect="1" arrows="1" fold="1" page="1" pageScale="1" pageWidth="850" pageHeight="1100" math="0" shadow="0">
            <root>
                <mxCell id="0"/>
                <mxCell id="1" parent="0"/>
                <mxCell id="2" value="Books" style="ellipse;shape=cloud;whiteSpace=wrap;html=1;" vertex="1" parent="1">
                    <mxGeometry x="100" y="270" width="360" height="210" as="geometry"/>
                </mxCell>
                <mxCell id="4" value="Writer" style="ellipse;shape=cloud;whiteSpace=wrap;html=1;" vertex="1" parent="1">
                    <mxGeometry x="230" y="60" width="120" height="80" as="geometry"/>
                </mxCell>
                <mxCell id="5" value="Name" style="ellipse;shape=cloud;whiteSpace=wrap;html=1;" vertex="1" parent="1">
                    <mxGeometry x="350" y="140" width="120" height="80" as="geometry"/>
                </mxCell>
                <mxCell id="6" value="Type/Subject" style="ellipse;shape=cloud;whiteSpace=wrap;html=1;" vertex="1" parent="1">
                    <mxGeometry x="450" y="70" width="120" height="80" as="geometry"/>
                </mxCell>
                <mxCell id="10" value="Price" style="ellipse;shape=cloud;whiteSpace=wrap;html=1;" vertex="1" parent="1">
                    <mxGeometry x="510" y="150" width="120" height="80" as="geometry"/>
                </mxCell>
                <mxCell id="11" value="Language" style="ellipse;shape=cloud;whiteSpace=wrap;html=1;" vertex="1" parent="1">
                    <mxGeometry x="610" y="240" width="120" height="80" as="geometry"/>
                </mxCell>
                <mxCell id="12" value="Publicher" style="ellipse;shape=cloud;whiteSpace=wrap;html=1;" vertex="1" parent="1">
                    <mxGeometry x="480" y="290" width="120" height="80" as="geometry"/>
                </mxCell>
                <mxCell id="13" value="ISBN" style="ellipse;shape=cloud;whiteSpace=wrap;html=1;" vertex="1" parent="1">
                    <mxGeometry x="110" y="100" width="120" height="80" as="geometry"/>
                </mxCell>
            </root>
        </mxGraphModel>
    </diagram>
    <diagram id="82muisVm0t2Q2MqEEuTz" name="Entity Relationship Model">
        <mxGraphModel dx="1140" dy="800" grid="1" gridSize="10" guides="1" tooltips="1" connect="1" arrows="1" fold="1" page="1" pageScale="1" pageWidth="850" pageHeight="1100" math="0" shadow="0">
            <root>
                <mxCell id="0"/>
                <mxCell id="1" parent="0"/>
                <mxCell id="X-u05lcoIUgW317EXwad-27" style="edgeStyle=orthogonalEdgeStyle;html=1;exitX=0.5;exitY=1;exitDx=0;exitDy=0;startArrow=ERone;startFill=0;endArrow=baseDash;endFill=0;" edge="1" parent="1" source="qk5KFH6vjM2u_QCQDEPm-1" target="qk5KFH6vjM2u_QCQDEPm-3">
                    <mxGeometry relative="1" as="geometry"/>
                </mxCell>
                <mxCell id="WebUfD2QOZfs24HI3Rtc-4" style="edgeStyle=orthogonalEdgeStyle;html=1;exitX=0.75;exitY=1;exitDx=0;exitDy=0;entryX=0.5;entryY=0;entryDx=0;entryDy=0;startArrow=ERone;startFill=0;endArrow=baseDash;endFill=0;" edge="1" parent="1" source="qk5KFH6vjM2u_QCQDEPm-1" target="WebUfD2QOZfs24HI3Rtc-3">
                    <mxGeometry relative="1" as="geometry"/>
                </mxCell>
                <mxCell id="qk5KFH6vjM2u_QCQDEPm-1" value="Book" style="rounded=0;whiteSpace=wrap;html=1;" vertex="1" parent="1">
                    <mxGeometry x="610" y="460" width="110" height="60" as="geometry"/>
                </mxCell>
                <mxCell id="X-u05lcoIUgW317EXwad-26" style="edgeStyle=orthogonalEdgeStyle;html=1;exitX=1;exitY=1;exitDx=0;exitDy=0;startArrow=ERone;startFill=0;endArrow=ERmany;endFill=0;" edge="1" parent="1" source="qk5KFH6vjM2u_QCQDEPm-2" target="qk5KFH6vjM2u_QCQDEPm-3">
                    <mxGeometry relative="1" as="geometry"/>
                </mxCell>
                <mxCell id="qk5KFH6vjM2u_QCQDEPm-2" value="Writer" style="rounded=0;whiteSpace=wrap;html=1;" vertex="1" parent="1">
                    <mxGeometry x="100" y="470" width="120" height="60" as="geometry"/>
                </mxCell>
                <mxCell id="qk5KFH6vjM2u_QCQDEPm-3" value="writes" style="rhombus;whiteSpace=wrap;html=1;" vertex="1" parent="1">
                    <mxGeometry x="360" y="520" width="80" height="80" as="geometry"/>
                </mxCell>
                <mxCell id="X-u05lcoIUgW317EXwad-18" style="edgeStyle=orthogonalEdgeStyle;html=1;exitX=0.5;exitY=1;exitDx=0;exitDy=0;entryX=0;entryY=0.75;entryDx=0;entryDy=0;startArrow=none;startFill=0;endArrow=classic;endFill=1;" edge="1" parent="1" source="qk5KFH6vjM2u_QCQDEPm-6" target="qk5KFH6vjM2u_QCQDEPm-1">
                    <mxGeometry relative="1" as="geometry"/>
                </mxCell>
                <mxCell id="qk5KFH6vjM2u_QCQDEPm-6" value="ISBN" style="ellipse;whiteSpace=wrap;html=1;" vertex="1" parent="1">
                    <mxGeometry x="490" y="300" width="80" height="40" as="geometry"/>
                </mxCell>
                <mxCell id="X-u05lcoIUgW317EXwad-19" style="edgeStyle=orthogonalEdgeStyle;html=1;exitX=0.5;exitY=1;exitDx=0;exitDy=0;entryX=0;entryY=0.383;entryDx=0;entryDy=0;entryPerimeter=0;startArrow=none;startFill=0;endArrow=classic;endFill=1;" edge="1" parent="1" source="1DDzYJlMZGqY5mYYYr3h-1" target="qk5KFH6vjM2u_QCQDEPm-1">
                    <mxGeometry relative="1" as="geometry"/>
                </mxCell>
                <mxCell id="1DDzYJlMZGqY5mYYYr3h-1" value="bName" style="ellipse;whiteSpace=wrap;html=1;" vertex="1" parent="1">
                    <mxGeometry x="540" y="350" width="70" height="40" as="geometry"/>
                </mxCell>
                <mxCell id="X-u05lcoIUgW317EXwad-21" style="edgeStyle=orthogonalEdgeStyle;html=1;exitX=0.5;exitY=1;exitDx=0;exitDy=0;entryX=0.25;entryY=0;entryDx=0;entryDy=0;startArrow=none;startFill=0;endArrow=classic;endFill=1;" edge="1" parent="1" source="2l1a6-yfQb1j1bMKqz8Q-1" target="qk5KFH6vjM2u_QCQDEPm-1">
                    <mxGeometry relative="1" as="geometry"/>
                </mxCell>
                <mxCell id="2l1a6-yfQb1j1bMKqz8Q-1" value="bSubject" style="ellipse;whiteSpace=wrap;html=1;" vertex="1" parent="1">
                    <mxGeometry x="580" y="305" width="65" height="40" as="geometry"/>
                </mxCell>
                <mxCell id="X-u05lcoIUgW317EXwad-22" style="edgeStyle=orthogonalEdgeStyle;html=1;exitX=0.5;exitY=1;exitDx=0;exitDy=0;entryX=0.5;entryY=0;entryDx=0;entryDy=0;startArrow=none;startFill=0;endArrow=classic;endFill=1;" edge="1" parent="1" source="xjQTYnhvgEjpccspVWiv-2" target="qk5KFH6vjM2u_QCQDEPm-1">
                    <mxGeometry relative="1" as="geometry"/>
                </mxCell>
                <mxCell id="xjQTYnhvgEjpccspVWiv-2" value="bPrice" style="ellipse;whiteSpace=wrap;html=1;" vertex="1" parent="1">
                    <mxGeometry x="630" y="345" width="70" height="40" as="geometry"/>
                </mxCell>
                <mxCell id="X-u05lcoIUgW317EXwad-23" style="edgeStyle=orthogonalEdgeStyle;html=1;exitX=0.5;exitY=1;exitDx=0;exitDy=0;entryX=0.75;entryY=0;entryDx=0;entryDy=0;startArrow=none;startFill=0;endArrow=classic;endFill=1;" edge="1" parent="1" source="5ga5DiebGdpZORp-0n_v-1" target="qk5KFH6vjM2u_QCQDEPm-1">
                    <mxGeometry relative="1" as="geometry"/>
                </mxCell>
                <mxCell id="5ga5DiebGdpZORp-0n_v-1" value="bLanguage" style="ellipse;whiteSpace=wrap;html=1;" vertex="1" parent="1">
                    <mxGeometry x="680" y="295" width="80" height="50" as="geometry"/>
                </mxCell>
                <mxCell id="X-u05lcoIUgW317EXwad-24" style="edgeStyle=orthogonalEdgeStyle;html=1;exitX=0.5;exitY=1;exitDx=0;exitDy=0;entryX=1;entryY=0.15;entryDx=0;entryDy=0;entryPerimeter=0;startArrow=none;startFill=0;endArrow=classic;endFill=1;" edge="1" parent="1" source="X-u05lcoIUgW317EXwad-8" target="qk5KFH6vjM2u_QCQDEPm-1">
                    <mxGeometry relative="1" as="geometry"/>
                </mxCell>
                <mxCell id="X-u05lcoIUgW317EXwad-8" value="buyDate" style="ellipse;whiteSpace=wrap;html=1;" vertex="1" parent="1">
                    <mxGeometry x="760" y="280" width="80" height="50" as="geometry"/>
                </mxCell>
                <mxCell id="X-u05lcoIUgW317EXwad-13" style="edgeStyle=orthogonalEdgeStyle;html=1;exitX=0.5;exitY=1;exitDx=0;exitDy=0;entryX=0.25;entryY=0;entryDx=0;entryDy=0;startArrow=none;startFill=0;endArrow=classic;endFill=1;" edge="1" parent="1" source="X-u05lcoIUgW317EXwad-10" target="qk5KFH6vjM2u_QCQDEPm-2">
                    <mxGeometry relative="1" as="geometry"/>
                </mxCell>
                <mxCell id="X-u05lcoIUgW317EXwad-10" value="fName" style="ellipse;whiteSpace=wrap;html=1;" vertex="1" parent="1">
                    <mxGeometry x="80" y="355" width="70" height="40" as="geometry"/>
                </mxCell>
                <mxCell id="X-u05lcoIUgW317EXwad-14" style="edgeStyle=orthogonalEdgeStyle;html=1;exitX=0.5;exitY=1;exitDx=0;exitDy=0;entryX=0.617;entryY=-0.05;entryDx=0;entryDy=0;entryPerimeter=0;startArrow=none;startFill=0;endArrow=classic;endFill=1;" edge="1" parent="1" source="X-u05lcoIUgW317EXwad-11" target="qk5KFH6vjM2u_QCQDEPm-2">
                    <mxGeometry relative="1" as="geometry"/>
                </mxCell>
                <mxCell id="X-u05lcoIUgW317EXwad-11" value="lName" style="ellipse;whiteSpace=wrap;html=1;" vertex="1" parent="1">
                    <mxGeometry x="160" y="380" width="70" height="40" as="geometry"/>
                </mxCell>
                <mxCell id="X-u05lcoIUgW317EXwad-15" style="edgeStyle=orthogonalEdgeStyle;html=1;exitX=0;exitY=1;exitDx=0;exitDy=0;entryX=1;entryY=0;entryDx=0;entryDy=0;startArrow=none;startFill=0;endArrow=classic;endFill=1;" edge="1" parent="1" source="X-u05lcoIUgW317EXwad-12" target="qk5KFH6vjM2u_QCQDEPm-2">
                    <mxGeometry relative="1" as="geometry">
                        <Array as="points">
                            <mxPoint x="240" y="389"/>
                            <mxPoint x="240" y="470"/>
                        </Array>
                    </mxGeometry>
                </mxCell>
                <mxCell id="X-u05lcoIUgW317EXwad-12" value="id" style="ellipse;whiteSpace=wrap;html=1;" vertex="1" parent="1">
                    <mxGeometry x="250" y="355" width="70" height="40" as="geometry"/>
                </mxCell>
                <mxCell id="X-u05lcoIUgW317EXwad-17" style="edgeStyle=orthogonalEdgeStyle;html=1;exitX=0.5;exitY=1;exitDx=0;exitDy=0;entryX=0;entryY=0;entryDx=0;entryDy=0;startArrow=none;startFill=0;endArrow=classic;endFill=1;" edge="1" parent="1" source="X-u05lcoIUgW317EXwad-16" target="qk5KFH6vjM2u_QCQDEPm-2">
                    <mxGeometry relative="1" as="geometry"/>
                </mxCell>
                <mxCell id="X-u05lcoIUgW317EXwad-16" value="birthDay" style="ellipse;whiteSpace=wrap;html=1;" vertex="1" parent="1">
                    <mxGeometry x="10" y="330" width="70" height="40" as="geometry"/>
                </mxCell>
                <mxCell id="WebUfD2QOZfs24HI3Rtc-9" style="edgeStyle=orthogonalEdgeStyle;html=1;exitX=0.25;exitY=1;exitDx=0;exitDy=0;startArrow=none;startFill=0;endArrow=none;endFill=0;" edge="1" parent="1" source="WebUfD2QOZfs24HI3Rtc-2" target="WebUfD2QOZfs24HI3Rtc-6">
                    <mxGeometry relative="1" as="geometry"/>
                </mxCell>
                <mxCell id="WebUfD2QOZfs24HI3Rtc-10" style="edgeStyle=orthogonalEdgeStyle;html=1;exitX=0.75;exitY=1;exitDx=0;exitDy=0;startArrow=none;startFill=0;endArrow=none;endFill=0;" edge="1" parent="1" source="WebUfD2QOZfs24HI3Rtc-2" target="WebUfD2QOZfs24HI3Rtc-7">
                    <mxGeometry relative="1" as="geometry"/>
                </mxCell>
                <mxCell id="WebUfD2QOZfs24HI3Rtc-2" value="type/Category" style="rounded=0;whiteSpace=wrap;html=1;" vertex="1" parent="1">
                    <mxGeometry x="630" y="790" width="110" height="60" as="geometry"/>
                </mxCell>
                <mxCell id="WebUfD2QOZfs24HI3Rtc-5" style="edgeStyle=orthogonalEdgeStyle;html=1;exitX=0.5;exitY=1;exitDx=0;exitDy=0;entryX=0.627;entryY=0.017;entryDx=0;entryDy=0;entryPerimeter=0;startArrow=ERmany;startFill=0;endArrow=baseDash;endFill=0;" edge="1" parent="1" source="WebUfD2QOZfs24HI3Rtc-3" target="WebUfD2QOZfs24HI3Rtc-2">
                    <mxGeometry relative="1" as="geometry"/>
                </mxCell>
                <mxCell id="WebUfD2QOZfs24HI3Rtc-3" value="has" style="rhombus;whiteSpace=wrap;html=1;" vertex="1" parent="1">
                    <mxGeometry x="650" y="620" width="80" height="80" as="geometry"/>
                </mxCell>
                <mxCell id="WebUfD2QOZfs24HI3Rtc-6" value="id" style="ellipse;whiteSpace=wrap;html=1;" vertex="1" parent="1">
                    <mxGeometry x="600" y="900" width="80" height="40" as="geometry"/>
                </mxCell>
                <mxCell id="WebUfD2QOZfs24HI3Rtc-7" value="name" style="ellipse;whiteSpace=wrap;html=1;" vertex="1" parent="1">
                    <mxGeometry x="690" y="900" width="80" height="40" as="geometry"/>
                </mxCell>
                <mxCell id="ZcYWwRIGwtEVFqkZobQM-3" style="edgeStyle=orthogonalEdgeStyle;html=1;exitX=1;exitY=0.5;exitDx=0;exitDy=0;entryX=0;entryY=0.5;entryDx=0;entryDy=0;startArrow=ERone;startFill=0;endArrow=ERmany;endFill=0;" edge="1" parent="1" source="ZcYWwRIGwtEVFqkZobQM-1" target="ZcYWwRIGwtEVFqkZobQM-2">
                    <mxGeometry relative="1" as="geometry"/>
                </mxCell>
                <mxCell id="ZcYWwRIGwtEVFqkZobQM-1" value="publicher" style="rounded=0;whiteSpace=wrap;html=1;" vertex="1" parent="1">
                    <mxGeometry x="150" y="740" width="110" height="60" as="geometry"/>
                </mxCell>
                <mxCell id="ZcYWwRIGwtEVFqkZobQM-4" style="edgeStyle=orthogonalEdgeStyle;html=1;exitX=1;exitY=0.5;exitDx=0;exitDy=0;startArrow=ERone;startFill=0;endArrow=ERone;endFill=0;entryX=0.25;entryY=1;entryDx=0;entryDy=0;" edge="1" parent="1" source="ZcYWwRIGwtEVFqkZobQM-2" target="qk5KFH6vjM2u_QCQDEPm-1">
                    <mxGeometry relative="1" as="geometry">
                        <mxPoint x="630" y="530" as="targetPoint"/>
                    </mxGeometry>
                </mxCell>
                <mxCell id="ZcYWwRIGwtEVFqkZobQM-2" value="has" style="rhombus;whiteSpace=wrap;html=1;" vertex="1" parent="1">
                    <mxGeometry x="380" y="730" width="80" height="80" as="geometry"/>
                </mxCell>
                <mxCell id="ZcYWwRIGwtEVFqkZobQM-7" style="edgeStyle=orthogonalEdgeStyle;html=1;exitX=0.5;exitY=0;exitDx=0;exitDy=0;entryX=0.182;entryY=1;entryDx=0;entryDy=0;entryPerimeter=0;startArrow=none;startFill=0;endArrow=classic;endFill=1;" edge="1" parent="1" source="ZcYWwRIGwtEVFqkZobQM-5" target="ZcYWwRIGwtEVFqkZobQM-1">
                    <mxGeometry relative="1" as="geometry"/>
                </mxCell>
                <mxCell id="ZcYWwRIGwtEVFqkZobQM-5" value="id" style="ellipse;whiteSpace=wrap;html=1;" vertex="1" parent="1">
                    <mxGeometry x="60" y="870" width="80" height="40" as="geometry"/>
                </mxCell>
                <mxCell id="ZcYWwRIGwtEVFqkZobQM-8" style="edgeStyle=orthogonalEdgeStyle;html=1;exitX=0.5;exitY=0;exitDx=0;exitDy=0;entryX=0.655;entryY=1.017;entryDx=0;entryDy=0;entryPerimeter=0;startArrow=none;startFill=0;endArrow=classic;endFill=1;" edge="1" parent="1" source="ZcYWwRIGwtEVFqkZobQM-6" target="ZcYWwRIGwtEVFqkZobQM-1">
                    <mxGeometry relative="1" as="geometry"/>
                </mxCell>
                <mxCell id="ZcYWwRIGwtEVFqkZobQM-6" value="name" style="ellipse;whiteSpace=wrap;html=1;" vertex="1" parent="1">
                    <mxGeometry x="230" y="870" width="80" height="40" as="geometry"/>
                </mxCell>
            </root>
        </mxGraphModel>
    </diagram>
    <diagram id="qvkxNzSUhAOxDZrMcsWf" name="UML">
        <mxGraphModel dx="1140" dy="800" grid="1" gridSize="10" guides="1" tooltips="1" connect="1" arrows="1" fold="1" page="1" pageScale="1" pageWidth="850" pageHeight="1100" math="0" shadow="0">
            <root>
                <mxCell id="0"/>
                <mxCell id="1" parent="0"/>
                <mxCell id="Yj_p1mAdUEfvFSuY-beP-1" value="Writer" style="swimlane;fontStyle=0;childLayout=stackLayout;horizontal=1;startSize=30;horizontalStack=0;resizeParent=1;resizeParentMax=0;resizeLast=0;collapsible=1;marginBottom=0;whiteSpace=wrap;html=1;" vertex="1" parent="1">
                    <mxGeometry x="100" y="140" width="140" height="150" as="geometry"/>
                </mxCell>
                <mxCell id="Yj_p1mAdUEfvFSuY-beP-2" value="Writer_id:int" style="text;strokeColor=none;fillColor=none;align=left;verticalAlign=middle;spacingLeft=4;spacingRight=4;overflow=hidden;points=[[0,0.5],[1,0.5]];portConstraint=eastwest;rotatable=0;whiteSpace=wrap;html=1;fontStyle=4" vertex="1" parent="Yj_p1mAdUEfvFSuY-beP-1">
                    <mxGeometry y="30" width="140" height="30" as="geometry"/>
                </mxCell>
                <mxCell id="Yj_p1mAdUEfvFSuY-beP-3" value="fName:string" style="text;strokeColor=none;fillColor=none;align=left;verticalAlign=middle;spacingLeft=4;spacingRight=4;overflow=hidden;points=[[0,0.5],[1,0.5]];portConstraint=eastwest;rotatable=0;whiteSpace=wrap;html=1;" vertex="1" parent="Yj_p1mAdUEfvFSuY-beP-1">
                    <mxGeometry y="60" width="140" height="30" as="geometry"/>
                </mxCell>
                <mxCell id="Yj_p1mAdUEfvFSuY-beP-4" value="lName:string" style="text;strokeColor=none;fillColor=none;align=left;verticalAlign=middle;spacingLeft=4;spacingRight=4;overflow=hidden;points=[[0,0.5],[1,0.5]];portConstraint=eastwest;rotatable=0;whiteSpace=wrap;html=1;" vertex="1" parent="Yj_p1mAdUEfvFSuY-beP-1">
                    <mxGeometry y="90" width="140" height="30" as="geometry"/>
                </mxCell>
                <mxCell id="3UhTXH_GNkiEeNPQ4Kix-1" value="D.o.B:date" style="text;strokeColor=none;fillColor=none;align=left;verticalAlign=middle;spacingLeft=4;spacingRight=4;overflow=hidden;points=[[0,0.5],[1,0.5]];portConstraint=eastwest;rotatable=0;whiteSpace=wrap;html=1;" vertex="1" parent="Yj_p1mAdUEfvFSuY-beP-1">
                    <mxGeometry y="120" width="140" height="30" as="geometry"/>
                </mxCell>
                <mxCell id="Yj_p1mAdUEfvFSuY-beP-5" value="Type" style="swimlane;fontStyle=0;childLayout=stackLayout;horizontal=1;startSize=30;horizontalStack=0;resizeParent=1;resizeParentMax=0;resizeLast=0;collapsible=1;marginBottom=0;whiteSpace=wrap;html=1;" vertex="1" parent="1">
                    <mxGeometry x="100" y="360" width="140" height="90" as="geometry"/>
                </mxCell>
                <mxCell id="Yj_p1mAdUEfvFSuY-beP-6" value="type_id:int" style="text;strokeColor=none;fillColor=none;align=left;verticalAlign=middle;spacingLeft=4;spacingRight=4;overflow=hidden;points=[[0,0.5],[1,0.5]];portConstraint=eastwest;rotatable=0;whiteSpace=wrap;html=1;" vertex="1" parent="Yj_p1mAdUEfvFSuY-beP-5">
                    <mxGeometry y="30" width="140" height="30" as="geometry"/>
                </mxCell>
                <mxCell id="Yj_p1mAdUEfvFSuY-beP-7" value="tName:string" style="text;strokeColor=none;fillColor=none;align=left;verticalAlign=middle;spacingLeft=4;spacingRight=4;overflow=hidden;points=[[0,0.5],[1,0.5]];portConstraint=eastwest;rotatable=0;whiteSpace=wrap;html=1;" vertex="1" parent="Yj_p1mAdUEfvFSuY-beP-5">
                    <mxGeometry y="60" width="140" height="30" as="geometry"/>
                </mxCell>
                <mxCell id="Yj_p1mAdUEfvFSuY-beP-9" value="Book" style="swimlane;fontStyle=0;childLayout=stackLayout;horizontal=1;startSize=30;horizontalStack=0;resizeParent=1;resizeParentMax=0;resizeLast=0;collapsible=1;marginBottom=0;whiteSpace=wrap;html=1;" vertex="1" parent="1">
                    <mxGeometry x="650" y="130" width="140" height="300" as="geometry"/>
                </mxCell>
                <mxCell id="Yj_p1mAdUEfvFSuY-beP-10" value="ISBN_id:int" style="text;strokeColor=none;fillColor=none;align=left;verticalAlign=middle;spacingLeft=4;spacingRight=4;overflow=hidden;points=[[0,0.5],[1,0.5]];portConstraint=eastwest;rotatable=0;whiteSpace=wrap;html=1;fontStyle=4" vertex="1" parent="Yj_p1mAdUEfvFSuY-beP-9">
                    <mxGeometry y="30" width="140" height="30" as="geometry"/>
                </mxCell>
                <mxCell id="Yj_p1mAdUEfvFSuY-beP-11" value="bName:string" style="text;strokeColor=none;fillColor=none;align=left;verticalAlign=middle;spacingLeft=4;spacingRight=4;overflow=hidden;points=[[0,0.5],[1,0.5]];portConstraint=eastwest;rotatable=0;whiteSpace=wrap;html=1;" vertex="1" parent="Yj_p1mAdUEfvFSuY-beP-9">
                    <mxGeometry y="60" width="140" height="30" as="geometry"/>
                </mxCell>
                <mxCell id="Yj_p1mAdUEfvFSuY-beP-12" value="bSubject:string" style="text;strokeColor=none;fillColor=none;align=left;verticalAlign=middle;spacingLeft=4;spacingRight=4;overflow=hidden;points=[[0,0.5],[1,0.5]];portConstraint=eastwest;rotatable=0;whiteSpace=wrap;html=1;" vertex="1" parent="Yj_p1mAdUEfvFSuY-beP-9">
                    <mxGeometry y="90" width="140" height="30" as="geometry"/>
                </mxCell>
                <mxCell id="cv7IqG-LgWyC-KbZZmc4-1" value="bPrice:currancy" style="text;strokeColor=none;fillColor=none;align=left;verticalAlign=middle;spacingLeft=4;spacingRight=4;overflow=hidden;points=[[0,0.5],[1,0.5]];portConstraint=eastwest;rotatable=0;whiteSpace=wrap;html=1;" vertex="1" parent="Yj_p1mAdUEfvFSuY-beP-9">
                    <mxGeometry y="120" width="140" height="30" as="geometry"/>
                </mxCell>
                <mxCell id="cv7IqG-LgWyC-KbZZmc4-2" value="bLanguage:string" style="text;strokeColor=none;fillColor=none;align=left;verticalAlign=middle;spacingLeft=4;spacingRight=4;overflow=hidden;points=[[0,0.5],[1,0.5]];portConstraint=eastwest;rotatable=0;whiteSpace=wrap;html=1;" vertex="1" parent="Yj_p1mAdUEfvFSuY-beP-9">
                    <mxGeometry y="150" width="140" height="30" as="geometry"/>
                </mxCell>
                <mxCell id="cDq4p_UHIM9dUS7jAbVG-3" value="D.o.B:date" style="text;strokeColor=none;fillColor=none;align=left;verticalAlign=middle;spacingLeft=4;spacingRight=4;overflow=hidden;points=[[0,0.5],[1,0.5]];portConstraint=eastwest;rotatable=0;whiteSpace=wrap;html=1;" vertex="1" parent="Yj_p1mAdUEfvFSuY-beP-9">
                    <mxGeometry y="180" width="140" height="30" as="geometry"/>
                </mxCell>
                <mxCell id="sDWX6VoSZS0BYxgw4Ecs-1" value="fk_type_id:int" style="text;strokeColor=none;fillColor=none;align=left;verticalAlign=middle;spacingLeft=4;spacingRight=4;overflow=hidden;points=[[0,0.5],[1,0.5]];portConstraint=eastwest;rotatable=0;whiteSpace=wrap;html=1;" vertex="1" parent="Yj_p1mAdUEfvFSuY-beP-9">
                    <mxGeometry y="210" width="140" height="30" as="geometry"/>
                </mxCell>
                <mxCell id="cDq4p_UHIM9dUS7jAbVG-5" value="fk_writer_id:int" style="text;strokeColor=none;fillColor=none;align=left;verticalAlign=middle;spacingLeft=4;spacingRight=4;overflow=hidden;points=[[0,0.5],[1,0.5]];portConstraint=eastwest;rotatable=0;whiteSpace=wrap;html=1;" vertex="1" parent="Yj_p1mAdUEfvFSuY-beP-9">
                    <mxGeometry y="240" width="140" height="30" as="geometry"/>
                </mxCell>
                <mxCell id="gGjt6HopRIOmLH1XLFKH-5" value="fk_pub_id:int" style="text;strokeColor=none;fillColor=none;align=left;verticalAlign=middle;spacingLeft=4;spacingRight=4;overflow=hidden;points=[[0,0.5],[1,0.5]];portConstraint=eastwest;rotatable=0;whiteSpace=wrap;html=1;" vertex="1" parent="Yj_p1mAdUEfvFSuY-beP-9">
                    <mxGeometry y="270" width="140" height="30" as="geometry"/>
                </mxCell>
                <mxCell id="cDq4p_UHIM9dUS7jAbVG-4" style="edgeStyle=orthogonalEdgeStyle;html=1;exitX=1;exitY=0.5;exitDx=0;exitDy=0;entryX=0;entryY=0.833;entryDx=0;entryDy=0;entryPerimeter=0;startArrow=ERone;startFill=0;endArrow=ERmany;endFill=0;" edge="1" parent="1" source="3UhTXH_GNkiEeNPQ4Kix-1" target="cv7IqG-LgWyC-KbZZmc4-1">
                    <mxGeometry relative="1" as="geometry"/>
                </mxCell>
                <mxCell id="cDq4p_UHIM9dUS7jAbVG-8" style="edgeStyle=orthogonalEdgeStyle;html=1;exitX=1;exitY=0.5;exitDx=0;exitDy=0;entryX=-0.007;entryY=0.1;entryDx=0;entryDy=0;entryPerimeter=0;startArrow=ERone;startFill=0;endArrow=ERmany;endFill=0;" edge="1" parent="1" source="Yj_p1mAdUEfvFSuY-beP-6" target="cDq4p_UHIM9dUS7jAbVG-5">
                    <mxGeometry relative="1" as="geometry"/>
                </mxCell>
                <mxCell id="gGjt6HopRIOmLH1XLFKH-1" value="publicher" style="swimlane;fontStyle=0;childLayout=stackLayout;horizontal=1;startSize=30;horizontalStack=0;resizeParent=1;resizeParentMax=0;resizeLast=0;collapsible=1;marginBottom=0;whiteSpace=wrap;html=1;" vertex="1" parent="1">
                    <mxGeometry x="100" y="520" width="140" height="90" as="geometry"/>
                </mxCell>
                <mxCell id="gGjt6HopRIOmLH1XLFKH-2" value="pub_id:int" style="text;strokeColor=none;fillColor=none;align=left;verticalAlign=middle;spacingLeft=4;spacingRight=4;overflow=hidden;points=[[0,0.5],[1,0.5]];portConstraint=eastwest;rotatable=0;whiteSpace=wrap;html=1;" vertex="1" parent="gGjt6HopRIOmLH1XLFKH-1">
                    <mxGeometry y="30" width="140" height="30" as="geometry"/>
                </mxCell>
                <mxCell id="gGjt6HopRIOmLH1XLFKH-3" value="pName:string" style="text;strokeColor=none;fillColor=none;align=left;verticalAlign=middle;spacingLeft=4;spacingRight=4;overflow=hidden;points=[[0,0.5],[1,0.5]];portConstraint=eastwest;rotatable=0;whiteSpace=wrap;html=1;" vertex="1" parent="gGjt6HopRIOmLH1XLFKH-1">
                    <mxGeometry y="60" width="140" height="30" as="geometry"/>
                </mxCell>
                <mxCell id="hHDeaCMgbMmSNJWqenvi-1" style="edgeStyle=orthogonalEdgeStyle;html=1;exitX=1;exitY=0.5;exitDx=0;exitDy=0;entryX=0.471;entryY=1;entryDx=0;entryDy=0;entryPerimeter=0;startArrow=ERone;startFill=0;endArrow=ERmany;endFill=0;" edge="1" parent="1" source="gGjt6HopRIOmLH1XLFKH-2" target="gGjt6HopRIOmLH1XLFKH-5">
                    <mxGeometry relative="1" as="geometry"/>
                </mxCell>
            </root>
        </mxGraphModel>
    </diagram>
    <diagram id="MCV744WEX4_SOqsELcS-" name="Refine and Normalise">
        <mxGraphModel dx="1140" dy="800" grid="1" gridSize="10" guides="1" tooltips="1" connect="1" arrows="1" fold="1" page="1" pageScale="1" pageWidth="850" pageHeight="1100" math="0" shadow="0">
            <root>
                <mxCell id="0"/>
                <mxCell id="1" parent="0"/>
            </root>
        </mxGraphModel>
    </diagram>
</mxfile>